<svg version="1.1" id="Contentful_dark_" xmlns:x="ns_extend;" xmlns:i="ns_ai;" xmlns:graph="ns_graphs;" xmlns="http://www.w3.org/2000/svg" xmlns:xlink="http://www.w3.org/1999/xlink" x="0px" y="0px" viewBox="0 0 800 165.1" style="enable-background:new 0 0 800 165.1;" xml:space="preserve">
 <style type="text/css">
  .st0{fill:#FFDA00;}
	.st1{fill:#67B3FF;}
	.st2{fill:#EB5A68;}
	.st3{fill:#47A1FF;}
	.st4{fill:#D5465F;}
	.st5{fill-rule:evenodd;clip-rule:evenodd;fill:#29303A;}
 </style>
 <metadata>
  <sfw xmlns="ns_sfw;">
   <slices>
   </slices>
   <sliceSourceBounds bottomLeftOrigin="true" height="163.5" width="800" x="0.1" y="1.1">
   </sliceSourceBounds>
  </sfw>
 </metadata>
 <g>
  <path class="st0" d="M49.2,115.5c-8.5-8.6-13.3-20.3-13.2-32.4c0-12.1,4.8-23.8,13.5-32.3c7.4-6.6,8.1-18,1.5-25.4
		s-18-8.1-25.4-1.5c-0.5,0.5-1,0.9-1.4,1.4c-32,31.8-32.1,83.5-0.4,115.5c6.6,7.4,18,8,25.4,1.4s8-18,1.4-25.4
		C50.1,116.4,49.7,115.9,49.2,115.5z">
  </path>
  <path class="st1" d="M49.5,50.8C67.4,33,96.4,33.1,114.2,51c6.6,7.5,18,8.2,25.4,1.6s8.2-18,1.6-25.4c-0.5-0.5-1-1.1-1.5-1.5
		C108-6.3,56.5-6.6,24.5,25c-0.1,0.1-0.2,0.2-0.3,0.3c-7.5,6.6-8.2,17.9-1.6,25.4s17.9,8.2,25.4,1.6C48.5,51.8,49,51.3,49.5,50.8z">
  </path>
  <path class="st2" d="M114,115.7c-8.6,8.6-20.3,13.3-32.4,13.3s-23.8-4.8-32.3-13.5c-6.6-7.4-18-8.1-25.4-1.5s-8.1,18-1.5,25.4
		c0.5,0.5,0.9,1,1.4,1.4c31.7,32,83.3,32.3,115.3,0.6c0.1-0.1,0.1-0.1,0.2-0.2c7.1-7,7.1-18.4,0.1-25.5
		C132.5,108.8,121.1,108.7,114,115.7z">
  </path>
  <path class="st3" d="M48.8,51.9c-7,7-18.4,7-25.5,0s-7-18.4,0-25.5s18.4-7,25.5,0l0.1,0.1C55.9,33.6,55.8,44.9,48.8,51.9z">
  </path>
  <path class="st4" d="M48.8,140.2c-7,7-18.4,7-25.5,0s-7-18.4,0-25.5c7-7,18.4-7,25.5,0l0.1,0.1C55.9,121.9,55.8,133.2,48.8,140.2z">
  </path>
  <path class="st5" d="M219.7,100.8c5.2-3.9,5.9-1.7,10.3,2.7c2.2,2.2,8.2,6,4.3,9.2c-8.2,6.7-15.6,9.7-26,9.7
		c-23.6-0.1-40.3-17.8-39-41.2c0.6-10.5,4.7-20.4,12.9-27.2c7.5-6.3,16.8-9.1,26.6-8.9c4.8,0,9.6,0.9,14,2.8c3,1.1,5.8,2.6,8.4,4.5
		c5.2,4,2.8,6.3-1.3,10.4c-0.9,0.9-1.8,1.8-2.6,2.8c-2.1,2.1-3.5,3.6-6.2,1.6c-5.3-3.7-12-5.7-18.3-4c-20.4,5.2-19.5,41.5,5.5,41.6
		C212.4,104.6,216.4,103.3,219.7,100.8z M786.8,122.8c-3.4,0-6.2-2.7-6.2-6.2c0,0,0,0,0-0.1l0.3-80.4c0-3.4,2.7-6.2,6.2-6.2
		c0,0,0,0,0.1,0h6.7c3.4,0,6.2,2.8,6.2,6.2c0,0,0,0,0,0.1l-0.3,80.4c0,3.4-2.7,6.2-6.2,6.2c0,0,0,0-0.1,0H786.8z M751.8,113.4
		c-7.3,6.8-14.2,10.4-24.4,10.4c-20.7-0.1-30.7-17.3-30.7-36.5l0.1-32.7c0-3.4,2.8-6.2,6.2-6.2c0,0,0,0,0.1,0h6.7
		c3.4,0,6.2,2.7,6.2,6.2c0,0,0,0,0,0.1l-0.1,32.7c0,10.7,5.8,19.1,17.1,19.1s18.2-9.4,18.3-20V74.7c-0.1-0.5-0.1-0.9-0.1-1.4
		l0.1-18.6c0-3.4,2.7-6.2,6.2-6.2c0,0,0,0,0.1,0h6.6c3.4,0,6.2,2.7,6.2,6.2c0,0,0,0,0,0.1l-0.2,61.8c0,3.4-2.8,6.1-6.2,6.1h-5.7
		c-3.3-0.1-6-2.8-6.1-6.1L751.8,113.4z M672.2,48.5h12.9c3.4,0,6.2,2.9,6.1,6.3c0,0,0,0,0,0.1v4.3c0,3.4-2.8,6.2-6.2,6.2h-12.9
		l-0.2,50.8c0,3.4-2.7,6.2-6.2,6.2c0,0,0,0-0.1,0h-6.7c-3.4,0-6.2-2.8-6.2-6.2l0,0l0.2-70.3c0-15.3,8.8-27.4,24.4-28.8
		c0.5,0,0.8-0.1,1.3-0.1c0.9-0.1,1.8-0.1,2.8,0h6c3.4,0,6.2,2.9,6.1,6.3l0,0v3.9c0,3.4-2.8,6.2-6.2,6.2h-4.8
		c-7.4,0-10.5,5.6-10.6,12.6L672.2,48.5z M625.8,48.3H640c3.4,0,6.1,2.8,6.1,6.2v4.3c0,3.4-2.8,6.1-6.2,6.1h-14.2L625.6,96
		c0,6,2.9,9.4,8.9,9.4h2.9c3.4,0,6.1,2.8,6.1,6.2v4.3c0,3.4-2.8,6.1-6.2,6.1h-5.4c-1,0-2,0-3-0.1c-15.3-1-22.1-10.9-22.1-25.9
		c0.1-20.2,0.1-40.2,0.2-60.4c0-3.4,2.8-6.1,6.2-6.1l0,0h6.6c3.4,0,6.1,2.8,6.1,6.2L625.8,48.3L625.8,48.3z M420.8,47.5H435
		c3.4,0,6.1,2.8,6.1,6.2V58c0,3.4-2.8,6.1-6.2,6.1h-14.2v31.1c0,6,2.9,9.4,8.9,9.4h2.9c3.4,0,6.1,2.8,6.1,6.2l0,0v4.3
		c0,3.4-2.8,6.1-6.2,6.1h-4.3c-16.7-0.1-26.4-7.3-26.4-26c0.1-20.2,0.1-40.2,0.2-60.4c0-3.4,2.8-6.1,6.2-6.1h6.6
		c3.4,0,6.1,2.8,6.1,6.2L420.8,47.5z M337.6,56.3c6.8-6.3,14.2-10.4,23.7-10.4c20.8,0.1,31.5,17,31.4,36.5l-0.1,32.7
		c0,3.4-2.8,6.2-6.2,6.2l0,0h-6.7c-3.4,0-6.2-2.8-6.2-6.2l0,0l0.1-32.5c0-10.7-5.8-19.1-17.1-19.1s-18.2,9.3-18.3,19.9l-0.1,31.7
		c0,3.4-2.8,6.1-6.2,6.1h-6.6c-3.4,0-6.1-2.8-6.1-6.2c0.1-19.7,0.1-39.5,0.2-59.2v-2.6c0-3.4,2.8-6.2,6.2-6.2h5.6
		c3.3,0.1,6,2.8,6.1,6.1L337.6,56.3z M543,57.1c6.8-6.3,14.2-10.4,23.7-10.4c20.8,0.1,31.5,17.1,31.3,36.5V116
		c0,3.4-2.7,6.2-6.2,6.2c0,0,0,0-0.1,0H585c-3.4,0-6.2-2.8-6.2-6.2l0,0l0.1-32.5c0-10.7-5.8-19.1-17.1-19.1s-18.2,9.3-18.3,19.9
		l-0.2,31.7c0,3.4-2.8,6.1-6.2,6.1h-6.6c-3.4,0-6.1-2.8-6.1-6.2l0.2-61.9c0-3.4,2.8-6.2,6.2-6.2l0,0h5.7c3.3,0.1,6,2.8,6.1,6.2
		L543,57.1z M274.9,45.3c-22.5-0.1-38.4,16.1-38.5,38.5c-0.1,22.6,15.6,38.6,38.3,38.7s38.6-15.8,38.7-38.5
		C313.5,61.8,297.2,45.4,274.9,45.3z M461.5,91.5c1.6,10.4,11.5,14.6,21.2,14.8c4.9,0,9.6-1.1,14.1-3.1c0.7-0.3,1.4-0.6,2.1-1
		c2.3-1.3,4.4-2.1,6.5,0c1.1,1.2,2.2,2.3,3.3,3.3c1.1,1,2.1,2.2,3,3.3c3.1,3.9,0.9,4.8-2.6,7.3c-7.6,5.1-17.5,7.6-26.6,7.6
		c-24.4-0.1-40.6-15-40.6-39.6c0.1-23.3,16.2-38.7,39.5-38.6c23.8,0.1,37.2,14.1,37.6,37.8c0.1,6.4,0.3,8.5-6.3,8.5L461.5,91.5z
		 M274.9,62.7c11.6,0,19.4,10.2,19.4,21.3c0,11.6-7.3,21-19.5,21s-19.4-9.4-19.4-21.1S262.8,62.7,274.9,62.7z M462,75.5l38.3,0.1
		c-1.4-9.6-9.3-13.4-18.4-13.4S464.8,66.5,462,75.5z">
  </path>
 </g>
</svg>