<svg version="1.1" id="elUP2sSTofw1" xmlns:x="ns_extend;" xmlns:i="ns_ai;" xmlns:graph="ns_graphs;" shape-rendering="geometricPrecision" text-rendering="geometricPrecision" xmlns="http://www.w3.org/2000/svg" xmlns:xlink="http://www.w3.org/1999/xlink" x="0px" y="0px" viewBox="0 0 227.8 56" style="enable-background:new 0 0 227.8 56;" xml:space="preserve">
 <style type="text/css">
  .st0{fill:#290A38;}
	.st1{fill:#FF6429;}
	.st2{fill:#14B4EF;}
	.st3{fill:#00D273;}
	.st4{fill:#B066FF;}
 </style>
 <metadata>
  <sfw xmlns="ns_sfw;">
   <slices>
   </slices>
   <sliceSourceBounds bottomLeftOrigin="true" height="56" width="228" x="0" y="0">
   </sliceSourceBounds>
  </sfw>
 </metadata>
 <g>
  <g transform="translate(5.287003 1.628)">
   <path class="st0" d="M177.4,47.2c-3.6,0.2-7-1.1-9.5-3.7c-2.3-2.8-3.5-6.4-3.3-10.1v-18h6.3V33c-0.1,2.3,0.6,4.5,2,6.3
			c1.5,1.6,3.7,2.5,5.9,2.3c1.1,0,2.2-0.2,3.3-0.6c1-0.4,1.9-1,2.6-1.8c0.8-0.8,1.3-1.8,1.7-2.8c0.4-1.2,0.7-2.5,0.6-3.7V15.5h6.2
			v31.1h-6.1v-4.3C184.9,45.5,181.2,47.3,177.4,47.2">
   </path>
   <path class="st0" d="M145.9,47.2c-2.2,0-4.4-0.4-6.5-1.3c-1.9-0.8-3.7-2-5.2-3.5s-2.6-3.2-3.4-5.1c-0.8-2-1.3-4.2-1.2-6.3
			c0-2.2,0.4-4.4,1.3-6.4c0.8-1.9,2-3.7,3.5-5.1c1.5-1.5,3.2-2.6,5.2-3.4c2-0.8,4.2-1.3,6.4-1.2c1.6,0,3.3,0.2,4.9,0.7
			c3,0.9,5.6,2.6,7.6,5c1,1.2,1.8,2.4,2.3,3.8l-5.6,2.4c-0.7-1.8-2-3.4-3.6-4.5s-3.6-1.7-5.6-1.6c-1.4,0-2.8,0.3-4,0.8
			s-2.3,1.3-3.2,2.2c-2.9,3.1-3.7,7.5-2.1,11.4c1.6,3.9,5.3,6.4,9.5,6.3c2,0.1,4-0.6,5.7-1.8c1.5-1.2,2.7-2.7,3.5-4.5l5.6,2.4
			c-1.2,2.8-3.1,5.3-5.6,7.1C152.5,46.4,149.2,47.3,145.9,47.2">
   </path>
   <path class="st0" d="M110.3,47.2c-2.2,0-4.3-0.4-6.3-1.3c-3.9-1.6-6.9-4.7-8.6-8.6c-1.7-4-1.7-8.6,0-12.7c0.8-1.9,2-3.7,3.5-5.2
			s3.2-2.6,5.1-3.5c4-1.7,8.6-1.7,12.7,0c3.9,1.6,7,4.7,8.6,8.6c1.7,4,1.7,8.6,0,12.7c-1.6,3.9-4.7,7-8.6,8.6
			C114.6,46.8,112.5,47.2,110.3,47.2 M110.3,41.4c1.4,0,2.7-0.3,3.9-0.8c1.2-0.5,2.3-1.3,3.2-2.2c0.9-1,1.6-2.1,2.1-3.3
			c1.6-3.9,0.8-8.4-2.1-11.4c-0.9-0.9-2-1.7-3.2-2.2c-2.5-1.1-5.4-1.1-7.9,0c-2.4,1.1-4.3,3.1-5.3,5.5c-1,2.6-1,5.5,0,8.1
			c0.5,1.2,1.2,2.3,2.1,3.3c0.9,0.9,2,1.7,3.2,2.2C107.6,41.1,108.9,41.4,110.3,41.4">
   </path>
   <path class="st0" d="M221.5,33.3c-0.7-1.1-1.5-2-2.6-2.7s-2.3-1.3-3.5-1.6c-1.3-0.4-2.6-0.7-3.9-1c-1.9-0.4-3.7-0.9-5.6-1.5
			c-1.2-0.3-2-1.4-2-2.6c0-1.1,0.5-2.2,1.4-2.8c1.2-0.9,2.8-1.3,4.3-1.2c1.5,0,3,0.3,4.3,1c1.2,0.7,2.1,1.6,2.9,2.7l4.3-4.3
			c-1.1-1.2-2.5-2.3-4-3c-2.3-1.1-4.9-1.6-7.4-1.5c-1.7,0-3.4,0.2-5,0.7c-1.4,0.4-2.7,1.1-3.8,2c-1,0.8-1.8,1.8-2.4,3
			c-0.5,1.1-0.8,2.3-0.8,3.5c0,1.4,0.3,2.7,1,3.9c0.6,1,1.5,1.9,2.5,2.6c1.1,0.7,2.3,1.2,3.5,1.6c1.3,0.4,2.6,0.7,3.9,1
			c1,0.2,2,0.5,3,0.7c0.9,0.2,1.7,0.4,2.5,0.7c0.7,0.2,1.3,0.6,1.8,1.1c0.4,0.5,0.7,1.1,0.7,1.7c0,1.2-0.6,2.4-1.6,3.1
			c-1.3,1-3,1.4-4.6,1.3c-1.7,0.1-3.4-0.4-5-1.2c-1.4-0.9-2.6-2-3.5-3.4l-4.6,4.6c1.2,1.5,2.7,2.8,4.4,3.7c2.6,1.2,5.5,1.8,8.3,1.7
			c1.9,0,3.8-0.3,5.6-0.9c1.5-0.5,2.8-1.3,4-2.3c1-0.9,1.8-2,2.3-3.2c0.5-1.1,0.8-2.3,0.8-3.5C222.6,36,222.2,34.6,221.5,33.3">
   </path>
   <path class="st0" d="M66,4.5h6.3v36h20.5v6.1H66V4.5z">
   </path>
  </g>
  <g transform="matrix(.166451 0 0 0.166451 1.229234-1.185872)">
   <path id="elUP2sSTofw9" class="st1" d="M160.8,343.6H-7.4l84.1-84.1h168.2L160.8,343.6z">
   </path>
   <path id="elUP2sSTofw10" class="st2" d="M-7.4,91.2v252.3l84.1-84.1V7.1L-7.4,91.2z">
   </path>
   <path id="elUP2sSTofw11" class="st3" d="M244.9,91.2H76.7l84.1-84.1H329L244.9,91.2z">
   </path>
   <path id="elUP2sSTofw12" class="st4" d="M244.9,91.2v252.3l84.1-84.1V7.1L244.9,91.2z">
   </path>
  </g>
 </g>
</svg>