<?xml version="1.0" encoding="utf-8"?>
<!-- Generator: Adobe Illustrator 26.3.1, SVG Export Plug-In . SVG Version: 6.00 Build 0)  -->
<svg version="1.1" id="Layer_1" xmlns="http://www.w3.org/2000/svg" xmlns:xlink="http://www.w3.org/1999/xlink" x="0px" y="0px"
	 viewBox="0 0 429.1 65.3" style="enable-background:new 0 0 429.1 65.3;" xml:space="preserve">
<g id="Scalepad_blue_00000033368825826300565340000007538465588489035927_">
	<g>
		<g>
			<g>
				<path d="M97.5,12.3c-4.9,0-8.8,2.5-8.8,7c0,4.7,5.9,6.5,10.6,8.2c8.8,3,18.6,6.9,18.6,18.9c0,13.1-11.9,18.4-21.8,18.4
					c-9,0-15.8-3.1-22.3-9.5l7.1-6.9c5.2,5,9.1,7.3,15.2,7.3c5.3,0,10.5-2.5,10.5-8.8c0-5.7-6-7.8-12.2-10C86.4,34,78,30.1,78,19.8
					C78,8.5,87,3.2,96.8,3.2c7.4,0,13.4,2.3,19.2,6.6l-6.2,7.6C106.9,14.7,102.1,12.3,97.5,12.3z"/>
				<path d="M162.5,59.8c-3.8,3.3-8.9,4.9-14.8,4.9c-12.8,0-22.3-9.3-22.3-23c0-12.8,9.5-22.9,22.7-22.9c5.4,0,10.2,1.7,14.1,4.7
					l-5.1,7.7c-2.5-2.1-5.4-3.3-8.7-3.3c-7.1,0-12.6,6.2-12.6,13.9c0,8.2,5.7,13.9,12.5,13.9c3.1,0,6.3-1.1,8.8-3.2L162.5,59.8z"/>
				<path d="M197.2,63.7l-0.5-4.1c-3.1,3.7-7.4,5.1-12.4,5.1c-8.2,0-15.7-4.5-15.7-13.7c0-10.9,10-14.3,19.3-14.3
					c2.3,0,5,0.3,8.2,0.9v-1c0-6-2.6-9.5-9.4-9.5c-4.9,0-9.8,1.9-13.5,3.8l-2.8-7.7c5.2-2.5,11.9-4.3,18.2-4.3
					c12.4,0,17.8,7,17.8,18.4v26.4C206.4,63.7,197.2,63.7,197.2,63.7z M196.1,44.3c-2.6-0.6-4.8-0.9-6.7-0.9
					c-4.8,0-10.7,1.5-10.7,7.2c0,4.4,3.5,6.4,7.5,6.4c3.8,0,7-1.8,9.9-4.3V44.3z"/>
				<path d="M229,63.7h-10.3V0H229V63.7z"/>
				<path d="M248.9,44.4c0.7,6.5,5.1,11.9,12.2,11.9c5.7,0,9.4-2.2,12.1-6.8l7,4.7c-4.8,7.1-10.5,10.5-19.6,10.5
					c-13.5,0-22-9.6-22-22.6c0-13.2,9.6-23.2,22-23.2c11.9,0,20.7,8.6,20.7,20.3c0,1.6-0.2,3.6-0.4,5.2
					C280.9,44.4,248.9,44.4,248.9,44.4z M260.8,27.2c-6.3,0-9.9,4.2-11.3,9.9h21.2C270.4,31.3,266.3,27.2,260.8,27.2z"/>
				<path d="M310.1,4.2c9.9,0,21.8,4.8,21.8,18.2s-11.7,18.3-21.8,18.3h-7.9v23h-10.6V4.2H310.1z M302.2,31.7h5.9
					c7.2,0,12.6-2.4,12.6-9c0-5.9-4.4-9.4-10.9-9.4h-7.6V31.7z"/>
				<path d="M366,63.7l-0.5-4.1c-3.1,3.7-7.4,5.1-12.4,5.1c-8.2,0-15.7-4.5-15.7-13.7c0-10.9,10-14.3,19.3-14.3c2.3,0,5,0.3,8.2,0.9
					v-1c0-6-2.6-9.5-9.4-9.5c-4.9,0-9.8,1.9-13.5,3.8l-2.8-7.7c5.2-2.5,11.9-4.3,18.2-4.3c12.4,0,17.8,7,17.8,18.4v26.4
					C375.2,63.7,366,63.7,366,63.7z M364.9,44.3c-2.6-0.6-4.8-0.9-6.7-0.9c-4.8,0-10.7,1.5-10.7,7.2c0,4.4,3.5,6.4,7.5,6.4
					c3.8,0,7-1.8,9.9-4.3L364.9,44.3L364.9,44.3z"/>
				<path d="M429,63.7h-9.4l-0.5-5.6c-3.1,4.8-8.8,6.6-13.7,6.6c-12.1,0-21-10.3-21-23c0-12,8.6-22.8,21.2-22.8
					c4.5,0,9.7,1.8,13.1,5.5V0h10.4v63.7H429z M418.6,33.5c-3-3.8-7.1-5.5-11.1-5.5c-8.6,0-12.7,7.3-12.7,14
					c0,7.1,4.8,13.8,12.5,13.8c4.1,0,8.8-2,11.3-6.8L418.6,33.5L418.6,33.5z"/>
			</g>
			<g>
				<g>
					<path d="M58.5,25.2H48.3c-2.1,0-3.8,1.7-3.8,3.8v10.1c0,2.1,1.7,3.8,3.8,3.8h10.1c2.1,0,3.8-1.7,3.8-3.8V29
						C62.3,26.9,60.6,25.2,58.5,25.2L58.5,25.2z"/>
				</g>
			</g>
			<g>
				<g>
					<path d="M58.5,2.9H48.3c-2.1,0-3.8,1.7-3.8,3.8v10.1c0,2.1,1.7,3.8,3.8,3.8h10.1c2.1,0,3.8-1.7,3.8-3.8V6.7
						C62.3,4.6,60.6,2.9,58.5,2.9L58.5,2.9z"/>
				</g>
			</g>
			<g>
				<g>
					<path d="M58.5,47.5H48.3c-2.1,0-3.8,1.7-3.8,3.8v10.1c0,2.1,1.7,3.8,3.8,3.8h10.1c2.1,0,3.8-1.7,3.8-3.8V51.3
						C62.3,49.2,60.6,47.5,58.5,47.5L58.5,47.5z"/>
				</g>
			</g>
			<g>
				<path d="M13.9,47.5H3.8c-2.1,0-3.8,1.7-3.8,3.8v10.1c0,2.1,1.7,3.8,3.8,3.8h10.1c2.1,0,3.8-1.7,3.8-3.8V51.3
					C17.7,49.2,16,47.5,13.9,47.5L13.9,47.5z"/>
			</g>
			<g>
				<path d="M36.2,47.5H26.1c-2.1,0-3.8,1.7-3.8,3.8v10.1c0,2.1,1.7,3.8,3.8,3.8h10.1c2.1,0,3.8-1.7,3.8-3.8V51.3
					C40,49.2,38.3,47.5,36.2,47.5L36.2,47.5z"/>
			</g>
			<g>
				<path d="M36.2,25.2H26.1c-2.1,0-3.8,1.7-3.8,3.8v10.1c0,2.1,1.7,3.8,3.8,3.8h10.1c2.1,0,3.8-1.7,3.8-3.8V29
					C40,26.9,38.3,25.2,36.2,25.2L36.2,25.2z"/>
			</g>
		</g>
	</g>
</g>
</svg>
