<svg version="1.1" id="Layer_1" xmlns="http://www.w3.org/2000/svg" xmlns:xlink="http://www.w3.org/1999/xlink" x="0px" y="0px"
	 width="100%" viewBox="0 0 1024 352" enable-background="new 0 0 1024 352" xml:space="preserve">
<path fill="#000000" opacity="1.000000" stroke="none" 
	d="
M495.165649,146.063400 
	C515.618774,148.017990 525.712646,159.710876 526.464722,180.028381 
	C527.168457,199.041367 515.857483,214.649231 496.862091,217.900345 
	C490.579987,218.975555 484.321899,218.347488 477.266632,216.278564 
	C477.266632,224.308029 476.988312,231.567215 477.362030,238.792694 
	C477.622223,243.823288 475.961884,245.916504 470.876678,245.282654 
	C465.995972,244.674286 459.747009,247.434326 456.514923,243.966278 
	C453.558044,240.793549 455.708771,234.737167 455.644562,229.961365 
	C455.355865,208.497482 456.000458,187.027618 455.166626,165.563690 
	C454.986328,160.922516 455.567841,156.256439 455.558838,151.602295 
	C455.552856,148.509979 456.980682,147.517929 459.846039,147.605118 
	C463.337677,147.711380 466.841614,147.735306 470.329163,147.566360 
	C473.821655,147.397171 477.270691,147.000931 477.434082,152.792542 
	C483.164215,148.727203 488.662842,146.557312 495.165649,146.063400 
M496.366333,198.097595 
	C503.619232,192.987442 506.222412,185.395523 503.880066,176.184555 
	C501.773865,167.902267 496.803009,164.346298 488.648956,165.288757 
	C482.446045,166.005722 477.573639,171.832474 477.334320,179.091370 
	C477.175476,183.908447 477.484924,188.745316 477.219299,193.553131 
	C477.018433,197.189362 478.845245,198.873001 481.978210,199.312485 
	C486.576019,199.957458 491.236633,200.527618 496.366333,198.097595 
z"/>
<path fill="#000000" opacity="1.000000" stroke="none" 
	d="
M223.662643,200.995255 
	C223.661133,193.002686 223.732040,185.508560 223.639801,178.016434 
	C223.535721,169.560608 219.880676,165.239334 212.997009,165.184509 
	C205.495407,165.124771 200.353958,170.064255 200.178665,178.100479 
	C199.942688,188.918991 199.929932,199.748230 200.125565,210.567368 
	C200.203568,214.882599 198.760086,216.668350 194.362747,216.352585 
	C190.552261,216.078934 186.696411,216.109665 182.880066,216.335159 
	C178.883347,216.571350 177.690308,214.793243 177.701675,211.016769 
	C177.789398,181.876663 177.790848,152.736023 177.697113,123.595947 
	C177.685059,119.848885 179.175919,118.559967 182.761566,118.728333 
	C186.749161,118.915573 190.757294,118.896095 194.747131,118.735085 
	C198.165924,118.597122 199.514236,119.957962 199.446838,123.411827 
	C199.297562,131.061234 199.389252,138.715714 199.422211,146.367950 
	C199.428497,147.830353 199.115524,149.392563 200.355698,150.756744 
	C202.348511,151.524765 203.652283,149.807281 205.197525,149.075027 
	C211.558899,146.060532 218.109299,144.892151 225.087280,146.377563 
	C237.381470,148.994644 244.783905,157.035538 245.174896,169.653656 
	C245.613052,183.793930 245.246078,197.958145 245.325195,212.111404 
	C245.341736,215.070938 244.204651,216.370743 241.211014,216.299469 
	C236.717636,216.192474 232.218933,216.201538 227.724594,216.280273 
	C224.692932,216.333374 223.585846,214.857224 223.657562,211.983917 
	C223.744781,208.489609 223.668564,204.991211 223.662643,200.995255 
z"/>
<path fill="#000000" opacity="1.000000" stroke="none" 
	d="
M400.262421,205.983643 
	C400.186920,217.478333 401.243347,216.330612 390.248413,216.266830 
	C376.295105,216.185913 378.037750,218.226776 378.009583,204.174362 
	C377.957489,178.189667 377.969727,152.204819 377.981689,126.220032 
	C377.985107,118.791901 378.027039,118.790695 385.559204,118.775375 
	C388.724030,118.768929 391.900513,118.939224 395.050690,118.722801 
	C398.976074,118.453110 400.337860,120.104324 400.299316,123.961266 
	C400.167877,137.118683 400.263306,150.278427 400.284912,163.437256 
	C400.286530,164.409897 400.389801,165.382385 400.414490,165.811172 
	C405.204651,161.443710 410.560822,157.280701 414.994080,152.296768 
	C418.735931,148.090195 422.798218,146.688705 428.167725,147.067963 
	C433.207886,147.423965 438.292969,147.144241 444.049072,147.144241 
	C442.095032,151.758209 439.042755,153.660034 436.707153,156.130432 
	C432.359863,160.728729 427.939545,165.267548 423.364044,169.636780 
	C420.819458,172.066696 420.871124,174.047073 422.801056,176.934189 
	C430.204071,188.008896 437.362152,199.247696 444.566528,210.454269 
	C445.519135,211.936020 446.971222,213.273453 446.527832,216.114243 
	C439.067383,216.114243 431.510620,216.221191 423.960541,216.043671 
	C421.915497,215.995575 421.231964,213.781845 420.298553,212.251114 
	C415.549561,204.463058 410.844971,196.647903 406.065918,188.744797 
	C401.337677,190.978729 399.777313,194.376144 400.218292,199.001785 
	C400.422913,201.147919 400.258728,203.329208 400.262421,205.983643 
z"/>
<path fill="#000000" opacity="1.000000" stroke="none" 
	d="
M627.857666,218.507263 
	C612.036255,218.248459 600.351685,211.612747 594.034607,197.436447 
	C587.661255,183.133850 589.630920,169.445526 599.627747,157.228455 
	C608.815552,146.000046 625.973877,142.039520 641.189514,147.406830 
	C654.712891,152.177185 664.099304,165.353455 664.335754,179.898819 
	C664.702454,202.446793 650.582703,217.559784 627.857666,218.507263 
M614.757751,171.393051 
	C612.047119,175.706131 611.713196,180.454361 612.305298,185.332657 
	C613.306824,193.585037 620.669556,200.076706 628.274109,199.489197 
	C635.376526,198.940491 641.316284,193.518341 642.657043,186.359589 
	C644.384460,177.136856 641.109009,169.173950 634.212524,165.830109 
	C627.458130,162.555191 620.919617,164.258255 614.757751,171.393051 
z"/>
<path fill="#000000" opacity="1.000000" stroke="none" 
	d="
M750.964355,200.843552 
	C757.107239,201.052460 762.277405,199.307373 767.068176,196.435776 
	C769.553345,194.946213 771.032349,195.374863 772.018250,198.073257 
	C772.588562,199.634323 773.327454,201.134811 774.010986,202.653320 
	C777.694519,210.836060 777.549988,211.338959 769.314148,214.657196 
	C757.796204,219.297791 746.050354,220.112885 734.171753,216.172394 
	C719.398682,211.271729 710.013184,196.797470 711.060364,180.754395 
	C712.278564,162.092819 722.878540,148.835983 739.028687,145.775970 
	C760.950867,141.622330 777.907227,154.293945 780.369141,176.669922 
	C781.654419,188.352097 781.654480,188.362900 769.830566,188.386612 
	C760.332764,188.405670 750.834961,188.375610 741.337280,188.408859 
	C738.705261,188.418060 736.036133,188.309067 733.547485,189.376541 
	C734.330872,197.048096 739.530457,200.531982 750.964355,200.843552 
M753.239197,164.090317 
	C745.700073,159.877319 736.935181,164.314835 734.423035,168.972839 
	C733.532715,170.623688 732.036499,173.365982 735.275146,173.575546 
	C743.241150,174.091003 751.270264,174.309464 759.462524,173.330521 
	C759.131775,168.884811 756.933472,166.397705 753.239197,164.090317 
z"/>
<path fill="#000000" opacity="1.000000" stroke="none" 
	d="
M364.298859,178.023041 
	C364.293884,189.181122 364.139038,199.846497 364.358063,210.504196 
	C364.444641,214.716522 363.299561,216.716568 358.752899,216.360931 
	C354.778351,216.050064 350.755035,216.143570 346.764679,216.318985 
	C343.181763,216.476501 342.155243,214.806625 342.228241,211.492188 
	C342.455505,201.170639 342.529541,190.845352 342.603027,180.521103 
	C342.615997,178.701660 342.493530,176.852417 342.170441,175.064484 
	C340.848663,167.750244 337.835785,165.041611 331.370026,165.178162 
	C324.912964,165.314514 319.683197,169.634262 319.364746,176.187531 
	C318.888153,185.993988 319.104279,195.834854 319.055573,205.661209 
	C318.994202,218.044388 319.662598,216.264816 308.224823,216.264313 
	C295.540436,216.263763 296.863922,217.927933 296.832001,204.755661 
	C296.790375,187.596161 296.956909,170.434982 296.756409,153.277771 
	C296.702606,148.674103 298.142639,146.926971 302.795746,147.530853 
	C305.745148,147.913620 308.786774,147.689026 311.782074,147.588486 
	C315.483978,147.464233 319.106598,147.295349 318.375854,153.389420 
	C325.102844,148.481003 331.530670,145.616852 338.997528,145.734924 
	C353.483337,145.964020 363.353394,155.432617 364.220367,170.031937 
	C364.368317,172.523148 364.278656,175.028458 364.298859,178.023041 
z"/>
<path fill="#000000" opacity="1.000000" stroke="none" 
	d="
M793.668335,162.834259 
	C806.848755,143.312241 832.306091,139.075958 850.299011,153.015045 
	C853.198914,155.261551 854.490417,157.175751 851.111572,160.037247 
	C849.730408,161.206802 848.741577,162.826920 847.467529,164.138428 
	C845.503113,166.160614 843.763428,168.853180 841.344910,169.861023 
	C838.671326,170.975204 836.998352,167.488586 834.694153,166.325928 
	C827.515137,162.703522 819.672729,164.026810 814.787781,169.959732 
	C809.640564,176.211166 809.731689,187.226944 814.984070,193.681274 
	C819.519653,199.254868 827.541565,200.696548 834.527954,197.193649 
	C842.194031,193.349976 842.194031,193.349960 848.008545,200.019394 
	C854.599487,207.579483 854.425110,208.515839 845.490540,213.534500 
	C822.070923,226.689529 794.221558,214.722458 789.265198,189.218689 
	C787.497131,180.120743 788.848694,171.320663 793.668335,162.834259 
z"/>
<path fill="#000000" opacity="1.000000" stroke="none" 
	d="
M907.767090,149.632080 
	C907.803711,154.539597 909.542603,159.759537 907.115601,163.289520 
	C904.342285,167.322968 898.780945,164.665726 894.466858,165.053833 
	C891.602234,165.311554 890.217896,166.160812 890.264282,169.212738 
	C890.378235,176.705780 890.161987,184.205612 890.362122,191.695129 
	C890.571716,199.536758 895.795654,202.891159 902.908142,199.348053 
	C907.206604,197.206726 908.954834,198.513535 910.173767,202.414001 
	C910.371399,203.046570 910.679871,203.644974 910.943665,204.256332 
	C914.782166,213.152390 914.391235,214.070129 905.146973,217.065872 
	C899.348083,218.945114 893.450562,219.411041 887.415588,218.231247 
	C876.698303,216.136108 870.182373,208.777618 868.707336,197.087799 
	C867.596863,188.287811 868.139404,179.455048 868.146118,170.640305 
	C868.149231,166.601501 866.827026,164.671921 862.657043,165.113449 
	C858.685486,165.533981 857.235229,163.587387 857.615234,159.778717 
	C857.796265,157.964264 857.828186,156.098312 857.626221,154.289337 
	C857.088684,149.474548 858.209778,146.560974 863.968567,147.486679 
	C867.450134,148.046310 868.331726,145.548187 867.980347,142.748367 
	C867.351624,137.738495 869.645508,135.143661 874.206787,133.520950 
	C879.303406,131.707748 884.198975,129.329056 889.476929,127.070236 
	C890.917847,132.096573 890.157532,136.420776 890.263245,140.673920 
	C890.427368,147.274277 890.697876,147.417450 897.521667,147.328842 
	C900.940918,147.284439 904.873657,145.498627 907.767090,149.632080 
z"/>
<path fill="#000000" opacity="1.000000" stroke="none" 
	d="
M112.107025,163.485962 
	C111.836990,159.414520 111.876381,155.751221 111.654488,152.103821 
	C111.439240,148.565536 113.053551,147.162598 116.397484,147.626678 
	C121.336044,148.312134 123.048965,146.104324 122.440475,141.381500 
	C121.947479,137.555161 123.666710,135.339157 127.418839,133.976440 
	C132.811188,132.018021 137.837708,129.065643 143.703949,127.332710 
	C144.847382,132.540527 144.453705,137.207657 144.229080,141.775635 
	C144.002396,146.385803 146.164429,147.702896 150.146988,147.539810 
	C152.472626,147.444595 154.794495,147.251511 157.120407,147.169342 
	C160.264404,147.058273 162.107590,148.190735 162.107849,151.762100 
	C162.109009,167.837692 163.151154,164.982986 149.873047,165.002060 
	C145.423462,165.008453 144.037247,166.510971 144.244293,170.813599 
	C144.539963,176.957306 144.265076,183.126389 144.333847,189.283524 
	C144.455170,200.144058 149.250275,203.156876 158.972900,198.562759 
	C159.708405,198.215240 160.486618,197.958145 161.552765,197.537598 
	C164.358170,201.416702 165.570053,205.949478 167.592560,210.065567 
	C168.441437,211.793167 167.505569,212.793793 166.190277,213.804871 
	C157.659897,220.362228 140.278076,220.495560 131.707382,213.928223 
	C125.412254,209.104538 122.948181,202.331909 122.724449,194.714478 
	C122.490005,186.732346 122.424606,178.732178 122.692986,170.753586 
	C122.839828,166.388000 121.379066,164.562378 116.988495,165.051743 
	C115.363693,165.232864 113.627739,165.236237 112.107025,163.485962 
z"/>
<path fill="#000000" opacity="1.000000" stroke="none" 
	d="
M656.641235,235.981445 
	C656.639160,234.657349 656.637634,233.824722 656.637390,232.992081 
	C656.635437,225.068161 656.635437,225.068100 664.124817,222.166534 
	C672.576172,218.892258 677.623718,211.498230 677.670471,201.923874 
	C677.749329,185.771118 677.839966,169.615768 677.612549,153.465897 
	C677.548035,148.882172 678.982117,147.151993 683.589661,147.532639 
	C687.726257,147.874359 691.910706,147.687210 696.073120,147.644363 
	C698.206543,147.622421 699.836182,148.281631 699.786011,150.627304 
	C699.334778,171.724182 702.235901,192.994614 698.090393,213.880676 
	C694.871338,230.098709 679.427246,243.037796 662.928772,245.181244 
	C656.955383,245.957291 656.672241,245.564987 656.641235,235.981445 
z"/>
<path fill="#000000" opacity="1.000000" stroke="none" 
	d="
M581.395630,161.363190 
	C580.272156,164.803986 578.281616,165.960327 574.952332,166.152893 
	C565.159912,166.719254 560.238647,172.042633 560.122437,181.870285 
	C560.008362,191.518768 559.971008,201.171875 560.149414,210.818344 
	C560.224365,214.872574 558.829529,216.603302 554.649963,216.339584 
	C550.506714,216.078156 546.333618,216.213303 542.175659,216.288940 
	C539.385559,216.339691 537.769653,215.421616 537.774536,212.324982 
	C537.806824,192.027237 537.796448,171.729401 537.763184,151.431641 
	C537.758606,148.673096 539.039490,147.597595 541.733582,147.593262 
	C546.055237,147.586304 550.387329,147.530548 554.695068,147.219345 
	C558.996338,146.908615 559.545654,149.723038 559.402649,154.277069 
	C564.774170,150.287476 569.119385,146.501480 575.035461,146.357239 
	C575.363831,146.349228 575.687134,146.214951 576.017029,146.183838 
	C579.520996,145.853302 583.698120,145.355469 585.938171,147.901535 
	C588.112122,150.372467 584.549927,153.225891 583.715149,155.968857 
	C583.186401,157.706406 582.282715,159.329880 581.395630,161.363190 
z"/>
<path fill="#000000" opacity="1.000000" stroke="none" 
	d="
M282.196167,184.000000 
	C282.192780,193.329010 282.084686,202.159805 282.235260,210.986191 
	C282.299438,214.748871 281.091217,216.555099 277.070068,216.330124 
	C272.918396,216.097824 268.739410,216.158340 264.580505,216.311478 
	C261.103302,216.439514 259.855377,214.874588 259.868164,211.533524 
	C259.932587,194.708786 259.888702,177.883667 259.903778,161.058685 
	C259.905426,159.215546 259.864471,157.115692 261.793518,156.209305 
	C268.056183,153.266663 274.405579,150.508514 282.196167,147.018799 
	C282.196167,160.076462 282.196167,171.788239 282.196167,184.000000 
z"/>
<path fill="#000000" opacity="1.000000" stroke="none" 
	d="
M260.970642,147.599518 
	C259.055054,141.809296 260.122986,136.155487 260.069336,130.542389 
	C260.057800,129.338257 260.544464,128.173187 261.714264,127.647362 
	C273.636841,122.288200 285.576599,116.967194 298.188293,111.333206 
	C299.598236,118.481911 299.170044,124.703278 298.581299,130.902908 
	C298.508942,131.664795 297.462738,132.639954 296.644989,132.979248 
	C284.844940,137.875397 273.530792,143.931274 260.970642,147.599518 
z"/>
</svg>